<mxfile host="app.diagrams.net" modified="2024-07-18T03:50:34.195Z" agent="Mozilla/5.0 (Windows NT 10.0; Win64; x64) AppleWebKit/537.36 (KHTML, like Gecko) Chrome/126.0.0.0 Safari/537.36" etag="SupHBuEN-hjAP-CgxfKt" version="24.7.1" type="github">
  <diagram name="Page-1" id="q6miNJA5kucgYhnMmkil">
    <mxGraphModel dx="1674" dy="786" grid="1" gridSize="10" guides="1" tooltips="1" connect="1" arrows="1" fold="1" page="1" pageScale="1" pageWidth="850" pageHeight="1100" math="0" shadow="0">
      <root>
        <mxCell id="0" />
        <mxCell id="1" parent="0" />
        <mxCell id="SlvNFpqxknPF0v6_dM1g-1" value="" style="rounded=0;whiteSpace=wrap;html=1;" vertex="1" parent="1">
          <mxGeometry width="850" height="80" as="geometry" />
        </mxCell>
        <mxCell id="SlvNFpqxknPF0v6_dM1g-2" value="" style="rounded=0;whiteSpace=wrap;html=1;" vertex="1" parent="1">
          <mxGeometry y="80" width="850" height="210" as="geometry" />
        </mxCell>
        <mxCell id="SlvNFpqxknPF0v6_dM1g-3" value="" style="rounded=0;whiteSpace=wrap;html=1;" vertex="1" parent="1">
          <mxGeometry x="60" y="340" width="730" height="50" as="geometry" />
        </mxCell>
        <mxCell id="SlvNFpqxknPF0v6_dM1g-6" value="" style="whiteSpace=wrap;html=1;aspect=fixed;" vertex="1" parent="1">
          <mxGeometry x="50" y="490" width="220" height="220" as="geometry" />
        </mxCell>
        <mxCell id="SlvNFpqxknPF0v6_dM1g-7" value="" style="whiteSpace=wrap;html=1;aspect=fixed;" vertex="1" parent="1">
          <mxGeometry x="315" y="490" width="220" height="220" as="geometry" />
        </mxCell>
        <mxCell id="SlvNFpqxknPF0v6_dM1g-8" value="" style="whiteSpace=wrap;html=1;aspect=fixed;" vertex="1" parent="1">
          <mxGeometry x="570" y="490" width="220" height="220" as="geometry" />
        </mxCell>
        <mxCell id="SlvNFpqxknPF0v6_dM1g-9" value="" style="rounded=0;whiteSpace=wrap;html=1;" vertex="1" parent="1">
          <mxGeometry y="940" width="850" height="160" as="geometry" />
        </mxCell>
        <mxCell id="SlvNFpqxknPF0v6_dM1g-12" value="Navbar" style="text;html=1;align=center;verticalAlign=middle;whiteSpace=wrap;rounded=0;" vertex="1" parent="1">
          <mxGeometry x="50" y="25" width="60" height="30" as="geometry" />
        </mxCell>
        <mxCell id="SlvNFpqxknPF0v6_dM1g-13" value="Navlink" style="text;html=1;align=center;verticalAlign=middle;whiteSpace=wrap;rounded=0;" vertex="1" parent="1">
          <mxGeometry x="540" y="30" width="60" height="30" as="geometry" />
        </mxCell>
        <mxCell id="SlvNFpqxknPF0v6_dM1g-14" value="Navlink" style="text;html=1;align=center;verticalAlign=middle;whiteSpace=wrap;rounded=0;" vertex="1" parent="1">
          <mxGeometry x="610" y="30" width="60" height="30" as="geometry" />
        </mxCell>
        <mxCell id="SlvNFpqxknPF0v6_dM1g-15" value="Navlink" style="text;html=1;align=center;verticalAlign=middle;whiteSpace=wrap;rounded=0;" vertex="1" parent="1">
          <mxGeometry x="690" y="30" width="60" height="30" as="geometry" />
        </mxCell>
        <mxCell id="SlvNFpqxknPF0v6_dM1g-16" value="Navlink" style="text;html=1;align=center;verticalAlign=middle;whiteSpace=wrap;rounded=0;" vertex="1" parent="1">
          <mxGeometry x="770" y="30" width="60" height="30" as="geometry" />
        </mxCell>
        <mxCell id="SlvNFpqxknPF0v6_dM1g-17" value="Carousel" style="text;html=1;align=center;verticalAlign=middle;whiteSpace=wrap;rounded=0;" vertex="1" parent="1">
          <mxGeometry x="317.5" y="130" width="205" height="90" as="geometry" />
        </mxCell>
        <mxCell id="SlvNFpqxknPF0v6_dM1g-18" value="Overview" style="text;html=1;align=center;verticalAlign=middle;whiteSpace=wrap;rounded=0;" vertex="1" parent="1">
          <mxGeometry x="400" y="350" width="60" height="30" as="geometry" />
        </mxCell>
        <mxCell id="SlvNFpqxknPF0v6_dM1g-21" value="Ticket" style="text;html=1;align=center;verticalAlign=middle;whiteSpace=wrap;rounded=0;" vertex="1" parent="1">
          <mxGeometry x="140" y="560" width="60" height="30" as="geometry" />
        </mxCell>
        <mxCell id="SlvNFpqxknPF0v6_dM1g-22" value="Ticket" style="text;html=1;align=center;verticalAlign=middle;whiteSpace=wrap;rounded=0;" vertex="1" parent="1">
          <mxGeometry x="390" y="560" width="60" height="30" as="geometry" />
        </mxCell>
        <mxCell id="SlvNFpqxknPF0v6_dM1g-23" value="Ticket" style="text;html=1;align=center;verticalAlign=middle;whiteSpace=wrap;rounded=0;" vertex="1" parent="1">
          <mxGeometry x="640" y="560" width="60" height="30" as="geometry" />
        </mxCell>
        <mxCell id="SlvNFpqxknPF0v6_dM1g-27" value="Review Panel" style="text;html=1;align=center;verticalAlign=middle;whiteSpace=wrap;rounded=0;" vertex="1" parent="1">
          <mxGeometry x="60" y="790" width="740" height="110" as="geometry" />
        </mxCell>
        <mxCell id="SlvNFpqxknPF0v6_dM1g-28" value="" style="rounded=0;whiteSpace=wrap;html=1;" vertex="1" parent="1">
          <mxGeometry x="325" y="750" width="200" height="40" as="geometry" />
        </mxCell>
        <mxCell id="SlvNFpqxknPF0v6_dM1g-29" value="Reviews" style="text;html=1;align=center;verticalAlign=middle;whiteSpace=wrap;rounded=0;" vertex="1" parent="1">
          <mxGeometry x="395" y="755" width="60" height="30" as="geometry" />
        </mxCell>
        <mxCell id="SlvNFpqxknPF0v6_dM1g-30" value="Title" style="text;html=1;align=center;verticalAlign=middle;whiteSpace=wrap;rounded=0;" vertex="1" parent="1">
          <mxGeometry x="395" y="950" width="60" height="30" as="geometry" />
        </mxCell>
        <mxCell id="SlvNFpqxknPF0v6_dM1g-31" value="Footer" style="text;html=1;align=center;verticalAlign=middle;whiteSpace=wrap;rounded=0;" vertex="1" parent="1">
          <mxGeometry x="390" y="920" width="60" height="30" as="geometry" />
        </mxCell>
        <mxCell id="SlvNFpqxknPF0v6_dM1g-32" value="" style="rounded=0;whiteSpace=wrap;html=1;" vertex="1" parent="1">
          <mxGeometry x="70" y="980" width="740" height="30" as="geometry" />
        </mxCell>
        <mxCell id="SlvNFpqxknPF0v6_dM1g-33" value="Form" style="text;html=1;align=center;verticalAlign=middle;whiteSpace=wrap;rounded=0;" vertex="1" parent="1">
          <mxGeometry x="110" y="980" width="60" height="30" as="geometry" />
        </mxCell>
        <mxCell id="SlvNFpqxknPF0v6_dM1g-34" value="Form" style="text;html=1;align=center;verticalAlign=middle;whiteSpace=wrap;rounded=0;" vertex="1" parent="1">
          <mxGeometry x="300" y="980" width="60" height="30" as="geometry" />
        </mxCell>
        <mxCell id="SlvNFpqxknPF0v6_dM1g-35" value="Form" style="text;html=1;align=center;verticalAlign=middle;whiteSpace=wrap;rounded=0;" vertex="1" parent="1">
          <mxGeometry x="480" y="980" width="60" height="30" as="geometry" />
        </mxCell>
        <mxCell id="SlvNFpqxknPF0v6_dM1g-36" value="Button" style="text;html=1;align=center;verticalAlign=middle;whiteSpace=wrap;rounded=0;" vertex="1" parent="1">
          <mxGeometry x="700" y="980" width="60" height="30" as="geometry" />
        </mxCell>
        <mxCell id="SlvNFpqxknPF0v6_dM1g-37" value="Links" style="text;html=1;align=center;verticalAlign=middle;whiteSpace=wrap;rounded=0;" vertex="1" parent="1">
          <mxGeometry x="127.5" y="1020" width="190" height="70" as="geometry" />
        </mxCell>
        <mxCell id="SlvNFpqxknPF0v6_dM1g-38" value="Us" style="text;html=1;align=center;verticalAlign=middle;whiteSpace=wrap;rounded=0;" vertex="1" parent="1">
          <mxGeometry x="580" y="1020" width="150" height="70" as="geometry" />
        </mxCell>
      </root>
    </mxGraphModel>
  </diagram>
</mxfile>
